<svg width="297" height="112" viewBox="0 0 297 112" fill="none" xmlns="http://www.w3.org/2000/svg">
<g id="signature">
<path id="Vector1" d="M17.0142 105.01C15.5295 96.2879 16.3354 87.0142 16.3354 78.1599C16.3354 69.8989 15.6566 61.6351 15.6566 53.4212C15.6566 43.6484 22.7967 41.2028 31.5708 41.2028C38.7875 41.2028 42.6436 44.5251 46.0519 50.5552C51.2982 59.837 53.6791 76.0324 40.7346 79.5175C36.1018 80.7648 27.0796 83.1926 22.4446 80.8751C19.806 79.5558 20.4824 72.8605 22.8218 71.3718C26.0273 69.332 33.2321 68.161 35.4928 71.8998C37.6442 75.458 37.3879 80.9794 38.7359 85.0233C42.3989 96.0122 49.5041 102.729 60.4577 104.294C64.5037 104.872 72.8228 105.513 76.5227 103.502C84.2605 99.2966 90.0389 91.6154 90.325 82.459C90.58 74.2997 87.7902 66.5362 78.1066 66.9973C71.5395 67.31 67.2457 79.7482 67.2457 85.0233C67.2457 92.048 72.1951 96.2848 78.1066 99.2405C83.6871 102.031 90.5519 105.865 96.7737 106.406C107.209 107.313 121.878 113.428 127.358 100.032C129.667 94.3865 115.222 94.7431 112.386 91.6605C104.362 82.9385 113.338 67.4335 122.908 64.3575C135 60.4706 139.166 68.8361 140.896 79.2158C141.283 81.5392 144.184 98.8305 144.29 98.788C145.343 98.3666 144.629 91.6575 144.629 90.7555C144.629 84.8319 143.868 79.0054 143.423 73.1066C142.543 61.4508 141.914 49.4931 141.914 37.8088C141.914 36.7342 141.235 29.0407 141.235 31.3601C141.235 36.6523 141.235 41.9444 141.235 47.2366C141.235 50.4798 141.235 53.7229 141.235 56.9661C141.235 58.2894 140.325 63.7488 141.386 64.8101C142.51 65.9338 144.302 60.8473 144.78 60.2093C147.206 56.9743 151.259 54.9059 155.189 54.2509C161.913 53.1301 164.933 56.1247 167.86 61.8686C170.907 67.8502 173.139 74.6399 173.139 81.4031C173.139 91.1437 177.896 109.056 191.165 104.633C196.77 102.765 196.385 95.5392 197.048 90.6046C198.539 79.5093 199.612 68.0244 199.612 56.8153C199.612 55.8718 200.057 53.3506 199.537 52.4408C198.933 51.3835 194.32 52.0636 193.202 52.0636C189.636 52.0636 188.607 48.9846 187.092 45.9544C184.939 41.6483 184.679 36.925 184.679 32.1898C184.679 27.7546 188.475 27.3731 192.41 27.0233C196.786 26.6343 199.059 29.3659 199.914 33.3965C200.024 33.9139 199.905 38.6864 201.31 38.3744C202.497 38.1105 203.627 33.552 204.515 32.3783C207.405 28.5594 210.323 26.9479 215.074 26.9479C224.175 26.9479 217.875 33.0523 215.376 36.9791C212.886 40.892 209.05 44.8288 206.023 48.4056C204.654 50.0242 202.328 52.1779 202.328 54.4395C202.328 55.2386 202.666 56.9518 201.988 57.4941C200.223 58.906 201.23 63.0626 200.819 64.9609C199.552 70.8197 200.291 77.4215 200.291 83.4395C200.291 89.9843 198.489 98.1935 206.023 100.41C211.814 102.113 224.623 110.544 229.819 103.615C233.928 98.1374 233.76 90.4422 234.91 84.0429C236.661 74.3022 235.678 64.3306 237.098 54.5526C238.021 48.1943 238.985 42.5525 240.68 36.4511C241.265 34.3446 242.377 27.9294 242.377 30.1156C242.377 31.5487 242.377 32.9817 242.377 34.4147C242.377 38.5096 240.321 41.4356 239.662 45.3887C238.689 51.2239 236.268 56.9385 236.268 62.9245C236.268 65.6188 238.981 62.7368 240.265 62.0949C246.389 59.0328 253.128 57.5695 259.875 56.6644C264.556 56.0365 278.211 52.7424 273.489 52.7424C264.67 52.7424 258.667 57.4694 250.561 60.1716C246.594 61.4937 242.536 61.4066 238.606 62.7737C237.881 63.0259 232.228 63.74 235.438 64.8101C238.916 65.9692 240.781 66.6978 243.508 69.4863C247.032 73.0877 249.71 77.4102 253.54 80.7243C259.363 85.7636 263.72 91.873 268.851 97.5435C270.581 99.4566 271.847 101.967 273.451 104.03C274.454 105.32 276.372 108.866 276.996 106.368" stroke="#90EE90" stroke-width="3" stroke-linecap="round"/>
</g>
</svg>
